<svg xmlns="http://www.w3.org/2000/svg" xmlns:xlink="http://www.w3.org/1999/xlink" width="156" zoomAndPan="magnify" viewBox="0 0 116.88 119.999999" height="160" preserveAspectRatio="xMidYMid meet" version="1.0"><defs><g/><clipPath id="bb7ffff91d"><path d="M 41 37 L 78 37 L 78 79.363281 L 41 79.363281 Z M 41 37 " clip-rule="nonzero"/></clipPath><clipPath id="04187a7c9e"><path d="M 53 69 L 63 69 L 63 79.363281 L 53 79.363281 Z M 53 69 " clip-rule="nonzero"/></clipPath><clipPath id="b5896c60de"><path d="M 46 27.195312 L 58 27.195312 L 58 38 L 46 38 Z M 46 27.195312 " clip-rule="nonzero"/></clipPath><clipPath id="611674675b"><path d="M 6.195312 55.058594 L 15.683594 55.058594 L 15.683594 64.542969 L 6.195312 64.542969 Z M 6.195312 55.058594 " clip-rule="nonzero"/></clipPath><clipPath id="47c2786112"><path d="M 88.582031 53.761719 L 98.066406 53.761719 L 98.066406 63.246094 L 88.582031 63.246094 Z M 88.582031 53.761719 " clip-rule="nonzero"/></clipPath><clipPath id="27253f7a9f"><rect x="0" width="104" y="0" height="106"/></clipPath></defs><g transform="matrix(1, 0, 0, 1, 6, 6)"><g clip-path="url(#27253f7a9f)"><g clip-path="url(#bb7ffff91d)"><path fill="#008a95" d="M 77.84375 49.554688 C 77.5 45.464844 74.679688 42.324219 71.4375 40.078125 C 59.476562 31.140625 48.308594 46.882812 49.703125 58.394531 C 50.71875 65.824219 45.925781 69.132812 42.003906 74.492188 C 40.742188 76.277344 42.105469 77.546875 43.554688 78.550781 C 44.476562 79.3125 45.945312 79.140625 46.667969 78.191406 C 46.667969 78.191406 51.980469 71.492188 51.980469 71.492188 C 54.042969 68.796875 57.269531 67.398438 60.585938 67.027344 C 68.835938 65.46875 78.75 58.976562 77.84375 49.554688 Z M 47.671875 74.351562 L 45.511719 72.640625 L 47.273438 70.417969 L 49.433594 72.128906 Z M 45.414062 77.199219 C 44.84375 77.957031 43.832031 76.628906 43.355469 76.359375 C 43.085938 76.144531 43.042969 75.753906 43.253906 75.484375 L 44.519531 73.894531 L 46.679688 75.605469 Z M 50.726562 70.5 L 50.425781 70.878906 L 48.265625 69.164062 C 48.867188 68.433594 49.425781 67.644531 49.863281 66.808594 L 52.355469 68.785156 C 51.765625 69.304688 51.222656 69.875 50.726562 70.5 Z M 74.121094 57.222656 L 74.75 57.71875 L 74.121094 57.222656 C 70.359375 62.035156 64.753906 64.957031 58.730469 65.730469 C 56.898438 66.054688 55.171875 66.757812 53.660156 67.78125 L 50.542969 65.3125 C 51.433594 63.136719 51.511719 60.648438 51.296875 58.308594 C 50.300781 48.078125 59.285156 33.328125 70.445312 41.332031 C 76.085938 44.851562 78.425781 51.65625 74.121094 57.222656 Z M 74.121094 57.222656 " fill-opacity="1" fill-rule="nonzero"/></g><path fill="#008a95" d="M 66.359375 44.945312 C 65.550781 44 64.203125 45.136719 65.121094 46.007812 C 65.929688 46.953125 67.277344 45.820312 66.359375 44.945312 Z M 66.359375 44.945312 " fill-opacity="1" fill-rule="nonzero"/><path fill="#008a95" d="M 69.503906 47.441406 C 68.695312 46.492188 67.347656 47.628906 68.269531 48.5 C 69.074219 49.445312 70.421875 48.3125 69.503906 47.441406 Z M 69.503906 47.441406 " fill-opacity="1" fill-rule="nonzero"/><path fill="#008a95" d="M 60.046875 46.449219 C 59.238281 45.503906 57.890625 46.640625 58.808594 47.511719 C 59.617188 48.457031 60.964844 47.320312 60.046875 46.449219 Z M 60.046875 46.449219 " fill-opacity="1" fill-rule="nonzero"/><path fill="#008a95" d="M 63.191406 48.941406 C 62.382812 47.996094 61.035156 49.132812 61.957031 50.003906 C 62.761719 50.949219 64.109375 49.816406 63.191406 48.941406 Z M 63.191406 48.941406 " fill-opacity="1" fill-rule="nonzero"/><path fill="#008a95" d="M 66.335938 51.4375 C 65.527344 50.488281 64.179688 51.625 65.097656 52.496094 C 65.90625 53.441406 67.253906 52.308594 66.335938 51.4375 Z M 66.335938 51.4375 " fill-opacity="1" fill-rule="nonzero"/><path fill="#008a95" d="M 69.480469 53.929688 C 68.671875 52.984375 67.324219 54.117188 68.246094 54.988281 C 69.046875 55.9375 70.398438 54.800781 69.480469 53.929688 Z M 69.480469 53.929688 " fill-opacity="1" fill-rule="nonzero"/><path fill="#008a95" d="M 56.878906 50.445312 C 56.070312 49.5 54.722656 50.636719 55.640625 51.507812 C 56.445312 52.453125 57.796875 51.316406 56.878906 50.445312 Z M 56.878906 50.445312 " fill-opacity="1" fill-rule="nonzero"/><path fill="#008a95" d="M 60.023438 52.9375 C 59.214844 51.992188 57.867188 53.128906 58.785156 54 C 59.589844 54.945312 60.941406 53.8125 60.023438 52.9375 Z M 60.023438 52.9375 " fill-opacity="1" fill-rule="nonzero"/><path fill="#008a95" d="M 63.164062 55.433594 C 62.359375 54.488281 61.011719 55.621094 61.929688 56.492188 C 62.734375 57.4375 64.085938 56.304688 63.164062 55.433594 Z M 63.164062 55.433594 " fill-opacity="1" fill-rule="nonzero"/><path fill="#008a95" d="M 66.308594 57.925781 C 65.503906 56.980469 64.15625 58.113281 65.074219 58.984375 C 65.878906 59.933594 67.230469 58.796875 66.308594 57.925781 Z M 66.308594 57.925781 " fill-opacity="1" fill-rule="nonzero"/><path fill="#008a95" d="M 56.851562 56.933594 C 56.046875 55.988281 54.699219 57.125 55.617188 57.996094 C 56.421875 58.941406 57.773438 57.808594 56.851562 56.933594 Z M 56.851562 56.933594 " fill-opacity="1" fill-rule="nonzero"/><path fill="#008a95" d="M 59.996094 59.429688 C 59.191406 58.480469 57.84375 59.617188 58.761719 60.488281 C 59.566406 61.433594 60.917969 60.300781 59.996094 59.429688 Z M 59.996094 59.429688 " fill-opacity="1" fill-rule="nonzero"/><path fill="#008a95" d="M 43.832031 67.039062 C 44.773438 67.054688 44.917969 65.601562 43.96875 65.453125 C 33.847656 64.316406 21.539062 51.71875 31.808594 42.941406 C 36.292969 38.289062 43.917969 37.582031 48.117188 42.980469 C 48.792969 43.566406 49.199219 45.335938 50.335938 44.730469 C 50.703125 44.484375 50.804688 43.988281 50.558594 43.621094 C 46.953125 37.398438 38.53125 35.496094 32.84375 40.078125 C 18.476562 49.773438 30.492188 65.117188 43.832031 67.039062 Z M 43.832031 67.039062 " fill-opacity="1" fill-rule="nonzero"/><g clip-path="url(#04187a7c9e)"><path fill="#008a95" d="M 58.308594 69.484375 C 57.675781 68.664062 56.398438 69.675781 57.054688 70.476562 C 57.054688 70.476562 58.769531 72.640625 58.769531 72.640625 L 56.609375 74.351562 L 54.609375 71.828125 C 54.332031 71.484375 53.832031 71.425781 53.484375 71.699219 C 53.136719 71.972656 53.082031 72.476562 53.355469 72.820312 L 57.613281 78.191406 C 58.335938 79.140625 59.804688 79.3125 60.730469 78.550781 C 61.46875 77.9375 62.710938 77.21875 62.742188 76.125 C 63.179688 74.726562 58.910156 70.566406 58.308594 69.484375 Z M 61.15625 75.941406 C 61.175781 76.351562 59.96875 77.046875 59.734375 77.300781 C 59.480469 77.511719 59.066406 77.464844 58.863281 77.199219 C 58.863281 77.199219 57.601562 75.605469 57.601562 75.605469 L 59.761719 73.894531 C 59.933594 74.207031 61.28125 75.542969 61.15625 75.941406 Z M 61.15625 75.941406 " fill-opacity="1" fill-rule="nonzero"/></g><path fill="#008a95" d="M 38.417969 46.371094 C 39.089844 46.339844 39.796875 45.5 39.289062 44.882812 C 38.21875 43.734375 36.671875 46.164062 38.417969 46.371094 Z M 38.417969 46.371094 " fill-opacity="1" fill-rule="nonzero"/><path fill="#008a95" d="M 35.273438 48.863281 C 35.945312 48.832031 36.652344 47.996094 36.144531 47.378906 C 35.074219 46.230469 33.527344 48.65625 35.273438 48.863281 Z M 35.273438 48.863281 " fill-opacity="1" fill-rule="nonzero"/><path fill="#008a95" d="M 44.730469 47.875 C 45.402344 47.84375 46.109375 47.003906 45.601562 46.386719 C 44.53125 45.238281 42.984375 47.667969 44.730469 47.875 Z M 44.730469 47.875 " fill-opacity="1" fill-rule="nonzero"/><path fill="#008a95" d="M 41.589844 50.367188 C 42.257812 50.335938 42.964844 49.496094 42.457031 48.878906 C 41.386719 47.730469 39.839844 50.160156 41.589844 50.367188 Z M 41.589844 50.367188 " fill-opacity="1" fill-rule="nonzero"/><path fill="#008a95" d="M 38.445312 52.863281 C 39.113281 52.832031 39.824219 51.992188 39.3125 51.375 C 38.242188 50.226562 36.695312 52.652344 38.445312 52.863281 Z M 38.445312 52.863281 " fill-opacity="1" fill-rule="nonzero"/><path fill="#008a95" d="M 35.300781 55.355469 C 35.96875 55.324219 36.679688 54.484375 36.167969 53.867188 C 35.097656 52.71875 33.550781 55.144531 35.300781 55.355469 Z M 35.300781 55.355469 " fill-opacity="1" fill-rule="nonzero"/><path fill="#008a95" d="M 44.753906 54.363281 C 45.425781 54.335938 46.132812 53.496094 45.625 52.878906 C 44.554688 51.726562 43.007812 54.15625 44.753906 54.363281 Z M 44.753906 54.363281 " fill-opacity="1" fill-rule="nonzero"/><path fill="#008a95" d="M 41.613281 56.859375 C 42.28125 56.828125 42.988281 55.988281 42.480469 55.371094 C 41.410156 54.222656 39.863281 56.648438 41.613281 56.859375 Z M 41.613281 56.859375 " fill-opacity="1" fill-rule="nonzero"/><path fill="#008a95" d="M 38.46875 59.351562 C 39.136719 59.320312 39.847656 58.480469 39.335938 57.863281 C 38.265625 56.714844 36.71875 59.140625 38.46875 59.351562 Z M 38.46875 59.351562 " fill-opacity="1" fill-rule="nonzero"/><path fill="#008a95" d="M 44.78125 60.855469 C 45.449219 60.824219 46.160156 59.984375 45.648438 59.367188 C 44.578125 58.21875 43.03125 60.644531 44.78125 60.855469 Z M 44.78125 60.855469 " fill-opacity="1" fill-rule="nonzero"/><g clip-path="url(#b5896c60de)"><path fill="#008a95" d="M 52.058594 37.855469 C 59.0625 37.726562 59.058594 27.324219 52.058594 27.199219 C 45.058594 27.324219 45.058594 37.730469 52.058594 37.855469 Z M 52.058594 28.796875 C 56.960938 28.886719 56.960938 36.167969 52.058594 36.253906 C 47.160156 36.167969 47.160156 28.882812 52.058594 28.796875 Z M 52.058594 28.796875 " fill-opacity="1" fill-rule="nonzero"/></g><g clip-path="url(#611674675b)"><path fill="#ffffff" d="M 7.546875 56.484375 C 6.777344 57.269531 6.308594 58.296875 6.214844 59.398438 C 6.46875 59.445312 6.769531 59.4375 7.117188 59.367188 C 7.773438 59.207031 8.558594 58.796875 9.257812 58.15625 C 9.953125 57.515625 10.429688 56.777344 10.625 56.128906 C 10.761719 55.707031 10.777344 55.34375 10.699219 55.058594 C 9.507812 55.121094 8.382812 55.628906 7.546875 56.484375 Z M 6.207031 60.082031 C 6.339844 62.347656 8.042969 64.199219 10.285156 64.515625 C 10.300781 64.222656 10.355469 63.914062 10.453125 63.605469 C 10.730469 62.710938 11.339844 61.769531 12.21875 60.960938 C 13.097656 60.152344 14.078125 59.621094 15 59.414062 C 15.230469 59.359375 15.457031 59.335938 15.6875 59.328125 C 15.449219 57.0625 13.660156 55.28125 11.394531 55.066406 C 11.457031 55.460938 11.410156 55.898438 11.277344 56.324219 C 11.023438 57.117188 10.484375 57.941406 9.714844 58.65625 C 8.9375 59.367188 8.074219 59.84375 7.269531 60.023438 C 6.902344 60.105469 6.539062 60.128906 6.207031 60.082031 Z M 12.527344 61.59375 C 11.804688 62.296875 11.316406 63.097656 11.09375 63.804688 C 11.015625 64.082031 10.96875 64.335938 10.960938 64.5625 C 13.453125 64.554688 15.523438 62.640625 15.703125 60.152344 C 15.703125 60.105469 15.703125 60.046875 15.703125 60 C 15.53125 60.007812 15.339844 60.03125 15.140625 60.074219 C 14.375 60.246094 13.476562 60.722656 12.679688 61.457031 C 12.621094 61.507812 12.574219 61.554688 12.527344 61.59375 Z M 12.527344 61.59375 " fill-opacity="1" fill-rule="nonzero"/></g><g clip-path="url(#47c2786112)"><path fill="#ffffff" d="M 89.929688 55.1875 C 89.160156 55.96875 88.695312 57 88.597656 58.101562 C 88.851562 58.148438 89.152344 58.140625 89.503906 58.070312 C 90.160156 57.910156 90.945312 57.5 91.640625 56.859375 C 92.339844 56.214844 92.8125 55.480469 93.011719 54.828125 C 93.144531 54.410156 93.160156 54.046875 93.082031 53.761719 C 91.894531 53.824219 90.769531 54.332031 89.929688 55.1875 Z M 88.589844 58.78125 C 88.726562 61.046875 90.429688 62.902344 92.671875 63.21875 C 92.6875 62.925781 92.742188 62.617188 92.835938 62.308594 C 93.113281 61.414062 93.722656 60.46875 94.601562 59.660156 C 95.484375 58.855469 96.464844 58.324219 97.382812 58.117188 C 97.613281 58.0625 97.84375 58.039062 98.074219 58.03125 C 97.835938 55.765625 96.046875 53.984375 93.78125 53.769531 C 93.84375 54.164062 93.796875 54.601562 93.660156 55.027344 C 93.40625 55.820312 92.867188 56.644531 92.101562 57.355469 C 91.324219 58.070312 90.460938 58.546875 89.652344 58.726562 C 89.289062 58.804688 88.925781 58.832031 88.589844 58.78125 Z M 94.914062 60.296875 C 94.191406 61 93.699219 61.800781 93.480469 62.503906 C 93.398438 62.78125 93.351562 63.035156 93.34375 63.265625 C 95.839844 63.257812 97.90625 61.339844 98.089844 58.855469 C 98.089844 58.804688 98.089844 58.75 98.089844 58.703125 C 97.914062 58.710938 97.722656 58.734375 97.527344 58.773438 C 96.757812 58.949219 95.863281 59.425781 95.0625 60.160156 C 95.007812 60.207031 94.960938 60.257812 94.914062 60.296875 Z M 94.914062 60.296875 " fill-opacity="1" fill-rule="nonzero"/></g><g fill="#008a95" fill-opacity="1"><g transform="translate(7.756118, 69.93311)"><g><path d="M 5.71875 6.09375 L 3.671875 2.59375 L 1.75 3 L 0.0625 0.109375 L 12.046875 -2.078125 L 13.890625 1.09375 L 6.109375 10.453125 L 4.421875 7.5625 Z M 7.40625 4.171875 L 9.984375 1.25 L 6.171875 2.046875 Z M 7.40625 4.171875 "/></g></g></g><g fill="#008a95" fill-opacity="1"><g transform="translate(17.058113, 84.168623)"><g><path d="M 4.03125 -4.109375 C 4.738281 -4.972656 5.554688 -5.59375 6.484375 -5.96875 C 7.421875 -6.351562 8.378906 -6.460938 9.359375 -6.296875 C 10.335938 -6.128906 11.265625 -5.6875 12.140625 -4.96875 C 13.234375 -4.0625 13.910156 -3.003906 14.171875 -1.796875 C 14.441406 -0.597656 14.269531 0.59375 13.65625 1.78125 L 11.015625 -0.390625 C 11.140625 -0.847656 11.128906 -1.28125 10.984375 -1.6875 C 10.847656 -2.101562 10.59375 -2.460938 10.21875 -2.765625 C 9.65625 -3.222656 9.039062 -3.390625 8.375 -3.265625 C 7.707031 -3.140625 7.09375 -2.738281 6.53125 -2.0625 C 5.96875 -1.375 5.691406 -0.6875 5.703125 0 C 5.710938 0.675781 6 1.242188 6.5625 1.703125 C 6.9375 2.003906 7.332031 2.1875 7.75 2.25 C 8.175781 2.3125 8.601562 2.238281 9.03125 2.03125 L 11.671875 4.203125 C 10.617188 5.035156 9.476562 5.4375 8.25 5.40625 C 7.019531 5.382812 5.859375 4.921875 4.765625 4.015625 C 3.890625 3.296875 3.269531 2.472656 2.90625 1.546875 C 2.550781 0.617188 2.46875 -0.332031 2.65625 -1.3125 C 2.851562 -2.289062 3.3125 -3.222656 4.03125 -4.109375 Z M 4.03125 -4.109375 "/></g></g></g><g fill="#008a95" fill-opacity="1"><g transform="translate(30.759203, 94.320474)"><g><path d="M 8.296875 0.921875 L 4.484375 -0.40625 L 3.28125 1.140625 L 0.125 0.046875 L 7.8125 -9.40625 L 11.28125 -8.203125 L 11.4375 3.96875 L 8.28125 2.875 Z M 8.34375 -1.65625 L 8.390625 -5.5625 L 6.03125 -2.453125 Z M 8.34375 -1.65625 "/></g></g></g><g fill="#008a95" fill-opacity="1"><g transform="translate(47.059858, 99.061906)"><g><path d="M 5.25 -11.53125 C 6.445312 -11.539062 7.5 -11.3125 8.40625 -10.84375 C 9.320312 -10.375 10.03125 -9.710938 10.53125 -8.859375 C 11.039062 -8.003906 11.300781 -7.019531 11.3125 -5.90625 C 11.332031 -4.8125 11.101562 -3.820312 10.625 -2.9375 C 10.144531 -2.0625 9.457031 -1.367188 8.5625 -0.859375 C 7.664062 -0.359375 6.625 -0.101562 5.4375 -0.09375 L 0.90625 -0.015625 L 0.71875 -11.453125 Z M 5.140625 -2.890625 C 6.066406 -2.910156 6.789062 -3.175781 7.3125 -3.6875 C 7.84375 -4.195312 8.097656 -4.914062 8.078125 -5.84375 C 8.066406 -6.789062 7.789062 -7.515625 7.25 -8.015625 C 6.707031 -8.523438 5.972656 -8.769531 5.046875 -8.75 L 3.953125 -8.734375 L 4.046875 -2.875 Z M 5.140625 -2.890625 "/></g></g></g><g fill="#008a95" fill-opacity="1"><g transform="translate(63.4345, 97.86613)"><g><path d="M 1.03125 -9.734375 L 1.625 -7.953125 L 5.078125 -9.125 L 5.84375 -6.84375 L 2.390625 -5.671875 L 3.0625 -3.71875 L 6.96875 -5.046875 L 7.78125 -2.640625 L 0.859375 -0.296875 L -2.8125 -11.125 L 4.109375 -13.46875 L 4.9375 -11.0625 Z M 1.03125 -9.734375 "/></g></g></g><g fill="#008a95" fill-opacity="1"><g transform="translate(76.308099, 93.199069)"><g><path d="M 3.984375 -17.84375 L 11.125 -8.90625 L 8.65625 -6.921875 L 4.71875 -11.84375 L 6.96875 -5.578125 L 4.890625 -3.90625 L -0.765625 -7.53125 L 3.203125 -2.5625 L 0.703125 -0.5625 L -6.4375 -9.5 L -3.4375 -11.90625 L 3.453125 -7.890625 L 1 -15.453125 Z M 3.984375 -17.84375 "/></g></g></g><g fill="#008a95" fill-opacity="1"><g transform="translate(91.098902, 79.733413)"><g><path d="M -4.328125 -15.484375 L 0.453125 -8.140625 L 3.609375 -6.328125 L 2.03125 -3.546875 L -1.125 -5.359375 L -9.90625 -5.71875 L -8.09375 -8.890625 L -3.265625 -8.4375 L -6.109375 -12.375 Z M -4.328125 -15.484375 "/></g></g></g><g fill="#008a95" fill-opacity="1"><g transform="translate(16.880579, 51.025103)"><g><path d="M -5.5 -1.671875 C -6.601562 -1.898438 -7.539062 -2.335938 -8.3125 -2.984375 C -9.082031 -3.628906 -9.617188 -4.425781 -9.921875 -5.375 C -10.222656 -6.320312 -10.257812 -7.347656 -10.03125 -8.453125 C -9.738281 -9.847656 -9.117188 -10.941406 -8.171875 -11.734375 C -7.234375 -12.523438 -6.09375 -12.921875 -4.75 -12.921875 L -5.453125 -9.578125 C -5.921875 -9.472656 -6.300781 -9.265625 -6.59375 -8.953125 C -6.882812 -8.648438 -7.078125 -8.265625 -7.171875 -7.796875 C -7.328125 -7.078125 -7.191406 -6.445312 -6.765625 -5.90625 C -6.347656 -5.375 -5.707031 -5.019531 -4.84375 -4.84375 C -3.976562 -4.664062 -3.242188 -4.734375 -2.640625 -5.046875 C -2.046875 -5.367188 -1.671875 -5.890625 -1.515625 -6.609375 C -1.421875 -7.078125 -1.445312 -7.507812 -1.59375 -7.90625 C -1.738281 -8.3125 -2.003906 -8.660156 -2.390625 -8.953125 L -1.6875 -12.296875 C -0.46875 -11.753906 0.410156 -10.929688 0.953125 -9.828125 C 1.503906 -8.722656 1.632812 -7.472656 1.34375 -6.078125 C 1.113281 -4.972656 0.671875 -4.046875 0.015625 -3.296875 C -0.640625 -2.546875 -1.445312 -2.03125 -2.40625 -1.75 C -3.363281 -1.46875 -4.394531 -1.441406 -5.5 -1.671875 Z M -5.5 -1.671875 "/></g></g></g><g fill="#008a95" fill-opacity="1"><g transform="translate(19.149238, 39.505033)"><g><path d="M 3.40625 -5.390625 C 2.851562 -4.472656 2.128906 -3.765625 1.234375 -3.265625 C 0.347656 -2.765625 -0.613281 -2.519531 -1.65625 -2.53125 C -2.695312 -2.550781 -3.691406 -2.847656 -4.640625 -3.421875 C -5.609375 -4.003906 -6.335938 -4.753906 -6.828125 -5.671875 C -7.316406 -6.597656 -7.539062 -7.566406 -7.5 -8.578125 C -7.457031 -9.597656 -7.160156 -10.566406 -6.609375 -11.484375 C -6.046875 -12.410156 -5.320312 -13.125 -4.4375 -13.625 C -3.550781 -14.132812 -2.585938 -14.378906 -1.546875 -14.359375 C -0.515625 -14.335938 0.484375 -14.035156 1.453125 -13.453125 C 2.398438 -12.878906 3.117188 -12.132812 3.609375 -11.21875 C 4.109375 -10.300781 4.335938 -9.332031 4.296875 -8.3125 C 4.265625 -7.289062 3.96875 -6.316406 3.40625 -5.390625 Z M 0.875 -6.9375 C 1.300781 -7.632812 1.410156 -8.316406 1.203125 -8.984375 C 1.003906 -9.660156 0.53125 -10.226562 -0.21875 -10.6875 C -1.007812 -11.164062 -1.75 -11.335938 -2.4375 -11.203125 C -3.125 -11.078125 -3.679688 -10.664062 -4.109375 -9.96875 C -4.535156 -9.269531 -4.644531 -8.585938 -4.4375 -7.921875 C -4.238281 -7.253906 -3.742188 -6.679688 -2.953125 -6.203125 C -2.191406 -5.734375 -1.46875 -5.5625 -0.78125 -5.6875 C -0.101562 -5.820312 0.445312 -6.238281 0.875 -6.9375 Z M 0.875 -6.9375 "/></g></g></g><g fill="#008a95" fill-opacity="1"><g transform="translate(25.584865, 29.077449)"><g><path d="M 5.109375 -4.34375 L 0.640625 -6.078125 L 0.390625 -5.875 L 3.125 -2.65625 L 0.6875 -0.59375 L -6.71875 -9.3125 L -2.890625 -12.546875 C -2.191406 -13.140625 -1.492188 -13.519531 -0.796875 -13.6875 C -0.0976562 -13.863281 0.550781 -13.84375 1.15625 -13.625 C 1.757812 -13.414062 2.285156 -13.046875 2.734375 -12.515625 C 3.242188 -11.921875 3.523438 -11.257812 3.578125 -10.53125 C 3.628906 -9.8125 3.421875 -9.085938 2.953125 -8.359375 L 7.8125 -6.640625 Z M -1.015625 -7.53125 L 0.171875 -8.53125 C 0.503906 -8.820312 0.6875 -9.109375 0.71875 -9.390625 C 0.75 -9.679688 0.632812 -9.976562 0.375 -10.28125 C 0.144531 -10.5625 -0.117188 -10.710938 -0.421875 -10.734375 C -0.734375 -10.753906 -1.050781 -10.625 -1.375 -10.34375 L -2.5625 -9.34375 Z M -1.015625 -7.53125 "/></g></g></g><g fill="#008a95" fill-opacity="1"><g transform="translate(33.559256, 22.392249)"><g><path d="M 3.109375 -14 L 4.15625 -11.703125 L 0 -9.796875 L 0.84375 -7.96875 L 3.90625 -9.375 L 4.921875 -7.171875 L 1.859375 -5.765625 L 3.71875 -1.703125 L 0.828125 -0.375 L -3.9375 -10.765625 Z M 3.109375 -14 "/></g></g></g><g fill="#008a95" fill-opacity="1"><g transform="translate(41.449396, 18.531461)"><g><path d="M 2.3125 -11.890625 L 3.28125 -5.328125 C 3.363281 -4.710938 3.570312 -4.257812 3.90625 -3.96875 C 4.238281 -3.6875 4.691406 -3.585938 5.265625 -3.671875 C 5.859375 -3.753906 6.273438 -3.984375 6.515625 -4.359375 C 6.765625 -4.742188 6.847656 -5.238281 6.765625 -5.84375 L 5.796875 -12.40625 L 8.9375 -12.859375 L 9.90625 -6.296875 C 10.050781 -5.265625 9.957031 -4.347656 9.625 -3.546875 C 9.300781 -2.742188 8.785156 -2.101562 8.078125 -1.625 C 7.378906 -1.15625 6.566406 -0.851562 5.640625 -0.71875 C 4.722656 -0.582031 3.878906 -0.644531 3.109375 -0.90625 C 2.335938 -1.164062 1.6875 -1.628906 1.15625 -2.296875 C 0.632812 -2.972656 0.300781 -3.832031 0.15625 -4.875 L -0.8125 -11.4375 Z M 2.3125 -11.890625 "/></g></g></g><g fill="#008a95" fill-opacity="1"><g transform="translate(52.875236, 17.303168)"><g/></g></g><g fill="#008a95" fill-opacity="1"><g transform="translate(56.075839, 17.165803)"><g><path d="M 11.546875 -4.84375 C 11.367188 -4.164062 11.054688 -3.59375 10.609375 -3.125 C 10.160156 -2.65625 9.582031 -2.335938 8.875 -2.171875 C 8.164062 -2.015625 7.359375 -2.054688 6.453125 -2.296875 L 4.9375 -2.6875 L 3.953125 1.046875 L 0.875 0.234375 L 3.796875 -10.828125 L 8.390625 -9.625 C 9.273438 -9.382812 9.988281 -9.023438 10.53125 -8.546875 C 11.070312 -8.078125 11.425781 -7.519531 11.59375 -6.875 C 11.757812 -6.238281 11.742188 -5.5625 11.546875 -4.84375 Z M 6.8125 -4.8125 C 7.675781 -4.582031 8.210938 -4.867188 8.421875 -5.671875 C 8.640625 -6.472656 8.316406 -6.988281 7.453125 -7.21875 L 6.21875 -7.53125 L 5.578125 -5.125 Z M 6.8125 -4.8125 "/></g></g></g><g fill="#008a95" fill-opacity="1"><g transform="translate(65.702874, 19.480803)"><g><path d="M 7.875 2.8125 L 4.453125 0.640625 L 2.921875 1.859375 L 0.109375 0.0625 L 9.765625 -7.34375 L 12.859375 -5.375 L 10.21875 6.5 L 7.390625 4.703125 Z M 8.515625 0.3125 L 9.453125 -3.46875 L 6.4375 -1 Z M 8.515625 0.3125 "/></g></g></g><g fill="#008a95" fill-opacity="1"><g transform="translate(75.626863, 25.722535)"><g><path d="M 12.328125 -2.90625 C 13.066406 -1.976562 13.53125 -1.007812 13.71875 0 C 13.914062 1.007812 13.828125 1.972656 13.453125 2.890625 C 13.078125 3.816406 12.457031 4.628906 11.59375 5.328125 C 10.738281 6.015625 9.816406 6.4375 8.828125 6.59375 C 7.835938 6.75 6.867188 6.628906 5.921875 6.234375 C 4.984375 5.835938 4.144531 5.175781 3.40625 4.25 L 0.5625 0.703125 L 9.484375 -6.453125 Z M 5.453125 2.28125 C 6.023438 3.007812 6.671875 3.421875 7.390625 3.515625 C 8.117188 3.617188 8.847656 3.378906 9.578125 2.796875 C 10.316406 2.203125 10.71875 1.539062 10.78125 0.8125 C 10.84375 0.0820312 10.585938 -0.644531 10.015625 -1.375 L 9.328125 -2.21875 L 4.765625 1.4375 Z M 5.453125 2.28125 "/></g></g></g><g fill="#008a95" fill-opacity="1"><g transform="translate(82.711637, 34.831238)"><g><path d="M 9.78125 0.421875 L 8.046875 1.125 L 9.421875 4.5 L 7.1875 5.40625 L 5.8125 2.03125 L 3.90625 2.8125 L 5.46875 6.640625 L 3.109375 7.609375 L 0.34375 0.84375 L 10.921875 -3.484375 L 13.6875 3.28125 L 11.34375 4.25 Z M 9.78125 0.421875 "/></g></g></g><g fill="#008a95" fill-opacity="1"><g transform="translate(85.985402, 42.937487)"><g><path d="M 3.03125 3.671875 L 3.5625 7.171875 L 1.15625 7.546875 L 0.140625 0.890625 L 11.453125 -0.828125 L 11.9375 2.328125 Z M 3.03125 3.671875 "/></g></g></g></g></g></svg>